<svg width="15" height="16" viewBox="0 0 15 16" fill="none" xmlns="http://www.w3.org/2000/svg">
<path d="M10.3251 1.11785C9.35986 0.152571 7.73257 0.416646 7.12207 1.63764L5.39285 5.09609C5.22855 5.42468 4.94939 5.68155 4.60829 5.81799L1.01834 7.25397C0.351773 7.5206 0.174981 8.38191 0.682624 8.88955L3.29289 11.4998L0 14.7927V15.4998H0.707112L4 12.2069L6.61027 14.8172C7.11791 15.3248 7.97923 15.148 8.24585 14.4815L9.68183 10.8915C9.81827 10.5504 10.0751 10.2713 10.4037 10.107L13.8622 8.37775C15.0832 7.76725 15.3472 6.13996 14.382 5.17468L10.3251 1.11785Z" fill="#838383"/>
</svg>
