<svg width="14" height="9" viewBox="0 0 14 9" fill="none" xmlns="http://www.w3.org/2000/svg">
<path d="M10.6619 0.647805C10.8358 0.836913 10.8272 1.1347 10.6427 1.31294L3.36284 8.34626C3.14493 8.55679 2.80285 8.55031 2.59268 8.33166L0.132048 5.77168C-0.0458764 5.58658 -0.0437243 5.28866 0.136855 5.10628C0.317435 4.92389 0.60806 4.9261 0.785985 5.1112L2.99455 7.40893L10.013 0.628117C10.1975 0.449882 10.488 0.458697 10.6619 0.647805Z" fill="#B7D9F3"/>
<path fill-rule="evenodd" clip-rule="evenodd" d="M13.8759 0.649633C14.0492 0.839213 14.0399 1.13698 13.8549 1.31471L6.51066 8.3726C6.32572 8.55033 6.03524 8.54073 5.86185 8.35115C5.68847 8.16157 5.69784 7.8638 5.88278 7.68607L13.227 0.628179C13.412 0.450447 13.7025 0.460052 13.8759 0.649633Z" fill="#B7D9F3"/>
</svg>
